Coordinates
version=1
nRows=24
nColumns=24
inDegrees=yes

Units are S.I. units (second, meters, Newtons, ...)
Angles are in degrees.

endheader
time	pelvis_tilt	pelvis_list	pelvis_rotation	pelvis_tx	pelvis_ty	pelvis_tz	hip_flexion_r	hip_adduction_r	hip_rotation_r	knee_angle_r	ankle_angle_r	subtalar_angle_r	mtp_angle_r	hip_flexion_l	hip_adduction_l	hip_rotation_l	knee_angle_l	ankle_angle_l	subtalar_angle_l	mtp_angle_l	lumbar_extension	lumbar_bending	lumbar_rotation
      0.74550000	      0.27457370	     -0.63760816	      1.45430283	     -0.38125078	      1.08645446	      0.33652683	      8.18558050	      4.46734075	      0.17277401	    -14.39990142	      4.19472029	     -9.72977988	      5.68939444	     17.04157079	     -6.08561145	     -2.58608744	    -69.18257348	      9.76535680	     11.30284737	      6.34967690	    -17.16412534	      6.76791163	      1.34413937
      0.74966667	      0.28305740	     -0.49575461	      1.28328246	     -0.37616385	      1.08729617	      0.33720835	      7.74254664	      4.36515047	      0.34485972	    -14.12241959	      4.26431007	     -9.67963136	      5.67877527	     17.48190149	     -5.99970523	     -2.75510997	    -68.72085147	     10.01823034	     11.54112960	      6.37056643	    -17.14558014	      6.53100052	      1.43114706
      0.75383333	      0.32539303	     -0.37261044	      1.10757186	     -0.37112908	      1.08816429	      0.33789967	      7.25572145	      4.28708916	      0.56619516	    -13.82208967	      4.32056591	     -9.69619316	      5.64192077	     17.87838600	     -5.93956682	     -2.92627857	    -68.22240549	     10.23872755	     11.77225169	      6.41480887	    -17.20336279	      6.30837413	      1.70793353
      0.75800000	      0.33508788	     -0.22508479	      0.92400958	     -0.36608214	      1.08894317	      0.33860209	      6.81984569	      4.17630660	      0.75515958	    -13.55482690	      4.39752756	     -9.65045079	      5.63058866	     18.29458112	     -5.85385772	     -3.11347416	    -67.68165276	     10.43815202	     11.93494229	      6.43299425	    -17.19684210	      6.06581771	      1.75571618
      0.76216667	      0.33159784	     -0.08248704	      0.73893444	     -0.36103480	      1.08966448	      0.33931053	      6.39537948	      4.07080895	      0.96116152	    -13.27996877	      4.47415089	     -9.62959446	      5.61710336	     18.71500889	     -5.77793376	     -3.30673173	    -67.10642115	     10.61401908	     12.07904866	      6.45101624	    -17.18377727	      5.82514454	      1.86290635
      0.76633333	      0.37483446	      0.05484633	      0.54779429	     -0.35603834	      1.09043160	      0.34002587	      5.91632930	      3.97244995	      1.20946575	    -12.98910121	      4.54312270	     -9.68118215	      5.58234222	     19.07249529	     -5.71061853	     -3.50197385	    -66.48865275	     10.75329825	     12.19826473	      6.48353930	    -17.24022557	      5.59008949	      2.13116273
      0.77050000	      0.38521403	      0.18289069	      0.36496244	     -0.35102550	      1.09109996	      0.34072105	      5.47663494	      3.87829175	      1.42439279	    -12.70487990	      4.60563922	     -9.69304639	      5.54969376	     19.46034709	     -5.65322901	     -3.69544144	    -65.84919841	     10.89129906	     12.26571272	      6.51106373	    -17.24130620	      5.36429967	      2.27565128
      0.77466667	      0.37757448	      0.31634455	      0.18209721	     -0.34600764	      1.09169659	      0.34141768	      5.06290291	      3.77375576	      1.61892042	    -12.43179102	      4.66501347	     -9.65708279	      5.53577853	     19.85692833	     -5.59199135	     -3.89437697	    -65.17945507	     11.02790659	     12.29346082	      6.52316746	    -17.21929997	      5.12324439	      2.32709992
      0.77883333	      0.39539498	      0.44863079	     -0.00785638	     -0.34102201	      1.09230516	      0.34212397	      4.61699812	      3.67253392	      1.86950505	    -12.14630803	      4.72015627	     -9.73126983	      5.48417532	     20.20944694	     -5.53090624	     -4.08987080	    -64.46298288	     11.11325349	     12.28991194	      6.55436589	    -17.24441255	      4.88818893	      2.59221345
      0.78300000	      0.38432996	      0.58921111	     -0.19135491	     -0.33602927	      1.09282790	      0.34279905	      4.21734970	      3.55439750	      2.06376988	    -11.89237633	      4.80643909	     -9.71735020	      5.46347931	     20.58353367	     -5.45847429	     -4.28659200	    -63.71560195	     11.18995761	     12.26208121	      6.56611604	    -17.21405458	      4.66730294	      2.64575746
      0.78716667	      0.39380078	      0.72876591	     -0.37273420	     -0.33105546	      1.09335069	      0.34346832	      3.79266465	      3.43544327	      2.27271376	    -11.62932251	      4.89026539	     -9.73486041	      5.43378083	     20.92254916	     -5.38346939	     -4.47685890	    -62.93189965	     11.23910070	     12.18341429	      6.57893585	    -17.21927434	      4.43537247	      2.77802041
      0.79133333	      0.40437454	      0.83741070	     -0.53799241	     -0.32610238	      1.09380170	      0.34410100	      3.35904720	      3.34762922	      2.48444898	    -11.34613707	      4.95628289	     -9.77441210	      5.38208393	     21.26390672	     -5.33828017	     -4.64433452	    -62.14382384	     11.28237457	     12.07546608	      6.59888602	    -17.23642939	      4.21755941	      2.96704277
      0.79550000	      0.38292931	      0.97422965	     -0.71120937	     -0.32113361	      1.09418804	      0.34473094	      2.97899419	      3.22353823	      2.66326519	    -11.10275685	      5.04472668	     -9.76244128	      5.35830503	     21.61578819	     -5.26055111	     -4.82297413	    -61.30214470	     11.31432773	     11.95829881	      6.60502532	    -17.19779993	      4.00402170	      3.01890711
      0.79966667	      0.36650389	      1.09266848	     -0.87014377	     -0.31618050	      1.09452919	      0.34533568	      2.58433034	      3.11726084	      2.84420813	    -10.83702945	      5.13451271	     -9.74940796	      5.33708426	     21.96052516	     -5.19833030	     -4.98378632	    -60.44742926	     11.32585737	     11.79504914	      6.60766681	    -17.17942367	      3.78273069	      3.08809083
      0.80383333	      0.38276705	      1.21430921	     -1.02218037	     -0.31126435	      1.09489712	      0.34588520	      2.16102290	      3.00212596	      3.01871988	    -10.58333168	      5.22757564	     -9.78253379	      5.28529693	     22.25480036	     -5.11443373	     -5.11743593	    -59.54782784	     11.28891038	     11.56153347	      6.61502703	    -17.20162456	      3.58498224	      3.26547434
      0.80800000	      0.37838186	      1.32956837	     -1.17341320	     -0.30635007	      1.09517162	      0.34642882	      1.76515658	      2.89083653	      3.18075781	    -10.33772125	      5.32806611	     -9.78041272	      5.24330713	     22.56269270	     -5.04150070	     -5.25608286	    -58.62964193	     11.26322227	     11.34843199	      6.61806582	    -17.19678736	      3.39398102	      3.34584054
      0.81216667	      0.33339854	      1.43330447	     -1.31483293	     -0.30141602	      1.09532500	      0.34694245	      1.41527625	      2.78984316	      3.33077648	    -10.09733717	      5.42484927	     -9.75777998	      5.22100302	     22.90914192	     -4.97635755	     -5.37980951	    -57.69969294	     11.24175840	     11.14112357	      6.61563309	    -17.15078234	      3.21047891	      3.38074411
      0.81633333	      0.33457125	      1.53427888	     -1.44550990	     -0.29653833	      1.09552727	      0.34740365	      1.02118060	      2.68718003	      3.46416220	     -9.86469511	      5.53676055	     -9.76083989	      5.17705194	     23.19278086	     -4.89398188	     -5.46869273	    -56.72829849	     11.16432448	     10.83873655	      6.61073987	    -17.15699510	      3.05077698	      3.48132079
      0.82050000	      0.31747076	      1.63853445	     -1.58014443	     -0.29164771	      1.09566039	      0.34785867	      0.64989099	      2.57733838	      3.59883203	     -9.63685223	      5.64166844	     -9.73604680	      5.15070169	     23.48138350	     -4.81176442	     -5.56859607	    -55.73260002	     11.10333313	     10.58335344	      6.60350437	    -17.15274684	      2.87565050	      3.51189452
      0.82466667	      0.29884313	      1.73254557	     -1.70103352	     -0.28677528	      1.09574441	      0.34826649	      0.28362042	      2.47628801	      3.71651202	     -9.41558028	      5.75752844	     -9.71672207	      5.12106751	     23.76330759	     -4.72499440	     -5.63385946	    -54.71199387	     11.01441336	     10.27970709	      6.59304621	    -17.14229989	      2.72991757	      3.55964433
      0.82883333	      0.29443783	      1.81887088	     -1.81353013	     -0.28192049	      1.09580752	      0.34863478	     -0.09746443	      2.37901666	      3.82038489	     -9.19318933	      5.87767543	     -9.68647078	      5.09073023	     24.02052257	     -4.63845803	     -5.68330601	    -53.67122219	     10.91694875	      9.96837214	      6.57985661	    -17.15555131	      2.58846152	      3.59870492
      0.83300000	      0.26927167	      1.88451658	     -1.91560906	     -0.27706496	      1.09578051	      0.34896062	     -0.45600625	      2.30297090	      3.91676975	     -8.97154000	      5.99962924	     -9.65636651	      5.05905947	     24.29517066	     -4.56663811	     -5.71312718	    -52.62035819	     10.81660812	      9.65443982	      6.56419896	    -17.14910435	      2.47915341	      3.63091716
      0.83716667	      0.23900000	      1.96452491	     -2.01608802	     -0.27220970	      1.09572164	      0.34927082	     -0.80499290	      2.20806221	      4.00481995	     -8.75616230	      6.12551812	     -9.61852984	      5.03126057	     24.55734476	     -4.47361058	     -5.73651597	    -51.53441690	     10.70329595	      9.34330189	      6.54679577	    -17.14423979	      2.35172912	      3.64322540
      0.84133333	      0.21298432	      2.01642734	     -2.10585944	     -0.26738070	      1.09560680	      0.34952591	     -1.15323234	      2.14140919	      4.07949107	     -8.55343717	      6.25785735	     -9.57420564	      5.00062543	     24.81002862	     -4.39787206	     -5.72546767	    -50.43779741	     10.58631083	      9.01917458	      6.52628124	    -17.13661733	      2.26692696	      3.65727094
